<svg xmlns="http://www.w3.org/2000/svg" viewBox="0 0 285.32 225.34"><defs><style>.cls-1{fill:#fff;}</style></defs><g id="Logo_exportable_4_Blanco_" data-name="Logo exportable 4 (Blanco)"><path id="Contorno" class="cls-1" d="M283.33,107.83a6.63,6.63,0,0,0-4.87-2q-20.16,0-20.15-20.15v-52Q258.31,0,224.87,0c-39.59,0-60.71,50.58-66.64,67.44-2.15,6.1-4.47,12.15-6.87,18.15L132,134a185.54,185.54,0,0,1-29.43,50c-11.95,14.34-27.17,27.84-42.12,27.84q-19.92,0-19.93-20.16v-52q0-16.6-10-27,10-10,10-26.79v-52q0-19.94,19.93-19.93a270.28,270.28,0,0,0,35.28,2.86c16.75,0,38.64-6.62,38.64-6.62-29,0-56.22-5.52-67.92-8.25A38.51,38.51,0,0,0,48,1.82Q27,7.34,27,33.81v52Q27,106,6.87,106A6.8,6.8,0,0,0,2,107.88a6.26,6.26,0,0,0-2,4.76,6.64,6.64,0,0,0,2,4.87,6.6,6.6,0,0,0,4.87,2Q27,119.5,27,139.65v52q0,33.66,33.43,33.66c19.62,0,38.26-17.65,52-35.29a207.1,207.1,0,0,0,28.63-50.45l23.23-58.11c.94-2.34,1.82-4.7,2.69-7.06,4.44-12.19,24.31-60.93,57.87-60.93q19.94,0,19.93,20.16v52q0,16.61,10,27-10,10-10,26.8v52q0,16.6-13.84,19.38a24.42,24.42,0,0,1-9.52-.19A148.46,148.46,0,0,0,194,207.8c-15.7,0-43,7.42-43,7.42,29,0,56.22,5.52,67.92,8.26a38.39,38.39,0,0,0,18.48,0q21-5.52,21-32v-52q0-20.16,20.15-20.15a6.83,6.83,0,0,0,4.87-1.89,6.25,6.25,0,0,0,2-4.76A6.63,6.63,0,0,0,283.33,107.83Z"/><g id="Punto_y_coma" data-name="Punto y coma"><circle class="cls-1" cx="85.26" cy="112.67" r="13.09"/><path class="cls-1" d="M213.48,120.57c1-2,3-4.71,1.39-10.76-1.53-5.72-6.45-10.23-12.37-10.23a13.09,13.09,0,0,0-5.9,24.77,3.55,3.55,0,0,1,1.91,2.84,21.77,21.77,0,0,1-1.45,9.53,29,29,0,0,1-3.78,6.87l-3.42,4.71a42.49,42.49,0,0,0,19.85-19.87C213.48,120.57,211.39,124.8,213.48,120.57Z"/></g></g></svg>