<svg xmlns="http://www.w3.org/2000/svg" viewBox="0 0 380.19 145.98"><defs><style>.cls-1{font-size:78.44px;fill:#0b9eda;font-family:Bayshore;letter-spacing:0.01em;}.cls-2,.cls-6{font-size:47.13px;}.cls-2,.cls-6,.cls-9{fill:#009fe0;}.cls-2{font-family:Comfortaa-Light, Comfortaa;font-weight:300;letter-spacing:0.02em;}.cls-3{letter-spacing:-0.01em;}.cls-4{letter-spacing:0.02em;}.cls-5{letter-spacing:-0.04em;}.cls-6{font-family:Comfortaa-Bold, Comfortaa;font-weight:700;letter-spacing:-0.06em;}.cls-7{letter-spacing:-0.11em;}.cls-8{letter-spacing:-0.06em;}</style></defs><g id="Logo_exportable_3" data-name="Logo exportable 3"><text class="cls-1" transform="translate(8.83 116.68)">Club </text><text class="cls-2" transform="translate(5.77 52.11)">Soft<tspan class="cls-3" x="102.32" y="0">w</tspan><tspan class="cls-4" x="137.15" y="0">a</tspan><tspan class="cls-5" x="170.09" y="0">r</tspan><tspan class="cls-4" x="188.85" y="0">e</tspan></text><text class="cls-6" transform="translate(126.77 118.08)">U<tspan class="cls-7" x="37" y="0">T</tspan><tspan class="cls-8" x="62.97" y="0">C</tspan></text><g id="Logo_Club_de_Software_UTC" data-name="Logo Club de Software UTC"><path id="Contorno" class="cls-9" d="M376.6,73.24a3.15,3.15,0,0,0-2.31-.95q-9.57,0-9.56-9.56V38q0-16-15.88-16c-18.79,0-28.82,24-31.64,32-1,2.9-2.12,5.77-3.26,8.62l-9.18,23a88.09,88.09,0,0,1-14,23.73c-5.67,6.8-12.89,13.21-20,13.21q-9.46,0-9.46-9.57V88.34q0-7.87-4.73-12.82,4.72-4.72,4.73-12.72V38.1q0-9.47,9.46-9.46A128,128,0,0,0,287.55,30c7.95,0,18.34-3.15,18.34-3.15a149.32,149.32,0,0,1-32.24-3.92,18.2,18.2,0,0,0-8.77,0q-10,2.61-9.95,15.18V62.8q0,9.57-9.57,9.57a3.22,3.22,0,0,0-2.31.89,3,3,0,0,0-1,2.26,3.24,3.24,0,0,0,3.26,3.26q9.57,0,9.57,9.56V113q0,16,15.87,16c9.31,0,18.16-8.38,24.68-16.75a98.49,98.49,0,0,0,13.6-24l11-27.58c.45-1.12.87-2.24,1.28-3.36,2.11-5.78,11.54-28.92,27.47-28.92q9.47,0,9.46,9.57v24.7q0,7.88,4.73,12.82-4.73,4.73-4.73,12.72V113q0,7.89-6.57,9.2a11.47,11.47,0,0,1-4.52-.09,70,70,0,0,0-13-1.39c-7.46,0-20.42,3.53-20.42,3.53A149.32,149.32,0,0,1,346,128.14a18.24,18.24,0,0,0,8.78,0q9.95-2.61,9.94-15.18V88.27q0-9.57,9.56-9.57a3.22,3.22,0,0,0,2.31-.89,3,3,0,0,0,.95-2.26A3.15,3.15,0,0,0,376.6,73.24Z"/><g id="Punto_y_coma" data-name="Punto y coma"><circle class="cls-9" cx="282.58" cy="75.54" r="6.21"/><path class="cls-9" d="M343.45,79.28a5.88,5.88,0,0,0,.65-5.1,6.29,6.29,0,0,0-5.87-4.86,6.21,6.21,0,0,0-2.8,11.76,1.68,1.68,0,0,1,.91,1.35,10.28,10.28,0,0,1-.69,4.52,13.66,13.66,0,0,1-1.8,3.26l-1.62,2.24A20.21,20.21,0,0,0,341.65,83C343.45,79.28,342.45,81.29,343.45,79.28Z"/></g></g></g></svg>